<?xml version="1.0" standalone="no"?>
<!DOCTYPE svg PUBLIC "-//W3C//DTD SVG 20010904//EN" "http://www.w3.org/TR/2001/REC-SVG-20010904/DTD/svg10.dtd">
<!-- Created using Karbon, part of Calligra: http://www.calligra.org/karbon -->
<svg xmlns="http://www.w3.org/2000/svg" xmlns:xlink="http://www.w3.org/1999/xlink" width="12.8pt" height="12.8pt">
<defs/>
<g id="layer1">
  <path id="rect4138" transform="translate(2, 2)" fill="#ffffff" d="M0 0L0 3L0 11.25L0 12L12 12L12 11.25L12 7.5L12 3L12 0ZM1 3L11 3L11 11C7.44907 10.963 4.54969 10.923 1 11Z"/>
  <path id="rect4169-4" transform="translate(6, 6)" fill="#ffffff" d="M2 0C1.44445 0 0.925714 0.1705 0.560263 0.4902C0.194823 0.81 0 1.2639 0 1.75L1.14286 1.75C1.14286 1.4861 1.23372 1.315 1.36831 1.1973C1.50286 1.0795 1.69841 1 2 1C2.30159 1 2.49714 1.08 2.63169 1.1973C2.76625 1.315 2.85714 1.4861 2.85714 1.75C2.85714 1.9792 2.80549 2.0767 2.73661 2.1631C2.43873 2.426 2.07848 2.6509 1.78906 2.8662C1.46239 3.0808 1.14302 3.3622 1.14302 3.75L1.14302 4L2.28587 4L2.28587 3.75C2.69206 3.3862 3.29729 3.0689 3.6741 2.7354C3.87305 2.4858 4 2.1458 4 1.75C4 1.2639 3.80518 0.81 3.43974 0.4902C3.07429 0.1705 2.55555 0 2 0ZM1.14302 5L1.14302 6L2.28587 6L2.28587 5Z"/>
 </g>
</svg>
