<?xml version="1.0" standalone="no"?>
<!DOCTYPE svg PUBLIC "-//W3C//DTD SVG 20010904//EN" "http://www.w3.org/TR/2001/REC-SVG-20010904/DTD/svg10.dtd">
<!-- Created using Karbon, part of Calligra: http://www.calligra.org/karbon -->
<svg xmlns="http://www.w3.org/2000/svg" xmlns:xlink="http://www.w3.org/1999/xlink" width="12.8pt" height="12.8pt">
<defs/>
<g id="layer1">
  <path id="path4259" transform="translate(0.0609977, 0.00714671)" fill="#fe3521" d="M7.97245 0C3.56939 0 0 3.56939 0 7.97245C0 12.3755 3.56939 15.9449 7.97245 15.9449C12.3755 15.9449 15.9449 12.3755 15.9449 7.97245C15.9449 3.56939 12.3755 0 7.97245 0ZM7.97245 1.59449C11.4949 1.59449 14.3504 4.45001 14.3504 7.97245C14.3504 11.4949 11.4949 14.3504 7.97245 14.3504C4.45001 14.3504 1.59449 11.4949 1.59449 7.97245C1.59449 4.45001 4.45001 1.59449 7.97245 1.59449Z"/>
  <rect id="rect4264" transform="translate(4.84447, 4.79056)" fill="#fe3521" width="1.27559302200pt" height="5.10237208800pt"/>
  <rect id="rect4266" transform="translate(9.62794, 4.79056)" fill="#fe3521" width="1.27559302200pt" height="5.10237208800pt"/>
 </g>
</svg>
