<?xml version="1.0" standalone="no"?>
<!DOCTYPE svg PUBLIC "-//W3C//DTD SVG 20010904//EN" "http://www.w3.org/TR/2001/REC-SVG-20010904/DTD/svg10.dtd">
<!-- Created using Karbon, part of Calligra: http://www.calligra.org/karbon -->
<svg xmlns="http://www.w3.org/2000/svg" xmlns:xlink="http://www.w3.org/1999/xlink" width="12.8pt" height="12.8pt">
<defs/>
<g id="layer1">
  <path id="path4160" transform="matrix(0.44842 -0.120154 0.120154 0.44842 8.54247 9.79247)" fill="#ffffff" d="M10.4033 6.59546L7.33784 6.84081L7.89425 9.86536L5.55312 7.87122L3.80789 10.4033L3.56253 7.33784L0.53798 7.89425L2.53212 5.55313L0 3.80789L3.0655 3.56253L2.50909 0.53798L4.85022 2.53213L6.59545 0L6.84081 3.0655L9.86536 2.50909L7.87122 4.85022Z"/>
  <path id="rect4139" transform="translate(3, 2)" fill="#ffffff" d="M0 0L0 1L0 11L0 12L6 12L6 11L1 11L1 1L6 1L6 4L9 4L9 7L10 7L10 5L10 4L10 3L7 0L5 0Z"/>
 </g>
</svg>
