<?xml version="1.0" standalone="no"?>
<!DOCTYPE svg PUBLIC "-//W3C//DTD SVG 20010904//EN" "http://www.w3.org/TR/2001/REC-SVG-20010904/DTD/svg10.dtd">
<!-- Created using Karbon, part of Calligra: http://www.calligra.org/karbon -->
<svg xmlns="http://www.w3.org/2000/svg" xmlns:xlink="http://www.w3.org/1999/xlink" width="12.8pt" height="12.8pt">
<defs/>
<g id="layer1">
  <path id="rect4079" transform="matrix(0.75 0 0 0.749998 2 2.00001)" fill="#ffffff" d="M3e-07 0L3e-07 1.3333L3e-07 5.3333L3e-07 6.6667L3e-07 14.6667L3e-07 16L16 16L16 14.6667L16 5.3333L16 4L16 2.6666L9.34375 2.6666L6.67708 0L6.66667 0.01L6.66667 0L1.33333 0L0 0ZM1.33333 1.3333L6.1224 1.3333L7.45833 2.6666L6.66667 2.6666L6.66667 2.6766L6.65625 2.6666L3.98958 5.3333L1.33333 5.3333L1.33333 1.3333ZM1.33333 6.6667L14.6667 6.6667L14.6667 14.6667L1.33333 14.6667Z"/>
 </g>
</svg>
